# xmcd
#
# Track frame offsets:
# 182
# 19765
# 29820
# 45460
# 63747
# 78385
# 94025
# 111940
# 125252
# 143555
# 162045
# 186015
# 205022
# 219075
# 241242
#
# Disc length: 3583 seconds
#
# Revision: 4
# Processed by: cddbd v1.5.2PL0 Copyright (c) Steve Scherf et al.
# Submitted via: TinyPlayer 2.8
#
DISCID=c30dfd0f
DTITLE=Various Artist - A Retrospective of House '91-'95, Volume 2: Seb Fontaine [Disc 3 of 3]
DYEAR=1995
DGENRE=House
TTITLE0=Edward's World - Soul Roots [Original Mix]
TTITLE1=Inner City - Good Life [Magic Juan's Mix]
TTITLE2=Taiko - Echo Drop [Dub Mix]
TTITLE3=Remake - Bladerunner [Original Mix]
TTITLE4=Pamela Fernandez - Kickin in the Beat ['94 Remix]
TTITLE5=Andronicus - Make You Whole [Original Mix]
TTITLE6=Eve Gallagher - You Can Have It All [Ramp Club Mix]
TTITLE7=Sultana - Te Amo [Caliente Mix]
TTITLE8=S.A.I.N. - Its Alright (Part 2)
TTITLE9=Tom Wilson - Techno Cat [Perplexer Mix]
TTITLE10=Subliminal Cuts - Le Voie le Soleil [Original Mix]
TTITLE11=Felix - Don't You Want Me ['95 Remix]
TTITLE12=Taiko - Echo Drop [Hard Mix]
TTITLE13=Dco2 - Do What You Feel [Original Mix]
TTITLE14=Alison Limerick - Where Love Lives [Original Mix]
EXTD=
EXTT0=
EXTT1=
EXTT2=
EXTT3=
EXTT4=
EXTT5=
EXTT6=
EXTT7=
EXTT8=
EXTT9=
EXTT10=
EXTT11=
EXTT12=
EXTT13=
EXTT14=
PLAYORDER=
